<?xml version="1.0" standalone="no"?>
<!DOCTYPE svg PUBLIC "-//W3C//DTD SVG 20010904//EN"
 "http://www.w3.org/TR/2001/REC-SVG-20010904/DTD/svg10.dtd">
<svg version="1.0" xmlns="http://www.w3.org/2000/svg"
 width="582.000000pt" height="98.000000pt" viewBox="0 0 582.000000 98.000000"
 preserveAspectRatio="xMidYMid meet">

<g transform="translate(0.000000,98.000000) scale(0.100000,-0.100000)"
fill="#000000" stroke="none">
<path d="M410 880 c0 -15 5 -20 18 -18 9 2 17 10 17 18 0 8 -8 16 -17 18 -13
2 -18 -3 -18 -18z"/>
<path d="M604 889 c-9 -15 11 -33 30 -26 9 4 13 13 10 22 -7 17 -30 20 -40 4z"/>
<path d="M1411 817 c-52 -18 -73 -54 -79 -135 -8 -119 -1 -138 86 -219 l76
-72 4 -63 c4 -75 -9 -118 -37 -118 -27 0 -41 29 -41 84 l0 46 -46 0 -47 0 6
-60 c10 -89 29 -128 74 -146 75 -32 150 2 170 77 28 105 9 214 -44 263 -123
112 -113 95 -113 179 0 55 4 80 16 91 30 31 51 11 60 -58 l7 -47 41 3 c40 3
41 4 38 38 -10 115 -78 169 -171 137z"/>
<path d="M2932 819 c-26 -8 -38 -20 -52 -53 -39 -87 -36 -517 4 -594 33 -65
148 -65 182 -1 8 17 19 62 23 100 l7 69 -43 0 -43 0 0 -46 c0 -51 -14 -84 -35
-84 -30 0 -35 40 -35 279 0 204 2 242 16 255 8 9 17 16 19 16 17 0 35 -38 35
-76 l0 -44 41 0 42 0 -6 55 c-7 72 -32 113 -77 125 -40 11 -34 11 -78 -1z"/>
<path d="M4200 819 c-81 -17 -90 -59 -90 -407 l0 -283 43 3 42 3 3 98 3 97 39
0 40 0 0 -101 0 -100 43 3 42 3 -1 280 c-1 291 -7 346 -43 379 -26 23 -78 34
-121 25z m71 -104 c4 -16 7 -94 8 -172 l1 -143 -40 0 -40 0 -1 68 c-2 118 2
246 7 265 4 13 14 17 32 15 21 -2 28 -10 33 -33z"/>
<path d="M4501 817 c-57 -20 -75 -56 -80 -152 -4 -105 17 -156 85 -205 62 -44
84 -83 84 -147 0 -67 -14 -103 -39 -103 -27 0 -41 29 -41 84 l0 46 -46 0 -47
0 5 -58 c11 -120 60 -172 149 -157 58 10 86 37 98 96 24 111 7 205 -47 253
-117 104 -112 96 -112 179 0 55 4 80 16 91 30 31 49 13 59 -56 7 -48 7 -48 46
-48 39 0 39 0 39 40 0 47 -19 98 -46 121 -26 23 -83 30 -123 16z"/>
<path d="M1697 809 c-46 -27 -51 -66 -55 -382 l-4 -297 46 0 46 0 0 100 0 100
40 0 40 0 0 -100 0 -100 46 0 46 0 -4 298 c-3 194 -8 306 -16 324 -22 53 -47
68 -109 68 -32 0 -66 -5 -76 -11z m103 -78 c6 -11 10 -87 10 -175 l0 -156 -40
0 -40 0 0 156 c0 161 7 194 40 194 11 0 24 -9 30 -19z"/>
<path d="M1970 475 l0 -346 43 3 42 3 3 162 2 163 40 0 40 0 0 -165 0 -165 45
0 45 0 0 345 0 345 -45 0 -45 0 0 -145 0 -145 -40 0 -39 0 -3 143 -3 142 -42
3 -43 3 0 -346z"/>
<path d="M2300 475 l0 -346 43 3 42 3 0 340 0 340 -42 3 -43 3 0 -346z"/>
<path d="M2455 807 c-3 -6 -4 -161 -3 -342 l3 -330 98 -3 97 -3 0 46 0 45 -55
0 -55 0 0 300 0 300 -40 0 c-23 0 -43 -5 -45 -13z"/>
<path d="M3140 475 l0 -346 43 3 42 3 3 162 2 163 40 0 40 0 0 -165 0 -165 45
0 45 0 0 345 0 345 -45 0 -45 0 0 -145 0 -145 -40 0 -39 0 -3 143 -3 142 -42
3 -43 3 0 -346z"/>
<path d="M3463 805 c-10 -26 4 -558 16 -594 23 -75 93 -107 165 -77 66 28 70
49 74 389 l3 298 -43 -3 -43 -3 -3 -289 c-2 -302 -5 -320 -46 -314 -31 4 -33
32 -35 336 l-1 272 -40 0 c-27 0 -43 -5 -47 -15z"/>
<path d="M3790 476 l0 -346 74 0 c92 0 132 14 152 52 24 46 37 206 31 375 -9
229 -26 256 -168 261 l-89 4 0 -346z m150 264 c12 -8 16 -49 18 -244 3 -259 0
-276 -48 -276 l-30 0 0 265 0 265 23 0 c12 0 29 -5 37 -10z"/>
<path d="M4776 797 c-38 -38 -46 -106 -46 -398 l0 -270 43 3 42 3 3 97 3 98
39 0 40 0 0 -100 0 -100 45 0 45 0 0 253 c0 304 -8 371 -50 410 -26 23 -39 27
-86 27 -44 0 -59 -5 -78 -23z m114 -73 c6 -14 10 -93 10 -175 l0 -149 -40 0
-40 0 0 153 c0 83 3 162 6 175 9 32 51 30 64 -4z"/>
<path d="M5060 474 l0 -345 43 3 42 3 5 140 5 140 24 -143 c24 -143 24 -143
50 -140 25 3 27 7 51 143 l25 140 5 -140 5 -140 43 -3 42 -3 0 345 0 346 -38
0 -39 0 -44 -215 c-24 -118 -46 -215 -49 -215 -3 0 -25 97 -49 215 l-44 215
-39 0 -38 0 0 -346z"/>
<path d="M5531 804 c-50 -36 -55 -66 -59 -381 l-4 -293 46 0 46 0 0 100 0 100
40 0 39 0 3 -97 3 -98 43 -3 42 -3 0 270 c0 378 -13 421 -122 421 -33 0 -62
-6 -77 -16z m103 -76 c3 -13 6 -92 6 -175 l0 -153 -40 0 -40 0 0 149 c0 82 4
161 10 175 13 34 55 36 64 4z"/>
<path d="M201 796 c-8 -10 -11 -26 -7 -41 6 -22 11 -26 39 -23 29 3 32 6 32
38 0 30 -4 35 -26 38 -14 2 -31 -4 -38 -12z"/>
<path d="M390 791 c-16 -31 4 -63 37 -59 34 4 52 32 37 56 -16 26 -60 28 -74
3z"/>
<path d="M592 798 c-27 -27 -6 -68 35 -68 29 0 48 33 33 60 -12 22 -49 27 -68
8z"/>
<path d="M790 796 c-6 -8 -10 -25 -8 -38 2 -19 9 -23 38 -23 29 0 36 4 38 23
4 28 -14 52 -38 52 -10 0 -23 -7 -30 -14z"/>
<path d="M365 635 c-30 -30 -32 -64 -4 -99 42 -54 129 -19 129 51 0 22 -8 38
-26 52 -35 28 -69 26 -99 -4z"/>
<path d="M586 639 c-34 -27 -36 -77 -3 -107 72 -67 172 34 102 103 -30 30 -64
32 -99 4z"/>
<path d="M206 607 c-22 -16 -18 -55 7 -71 39 -24 79 44 41 71 -10 7 -21 13
-24 13 -3 0 -14 -6 -24 -13z"/>
<path d="M796 607 c-22 -16 -18 -55 7 -71 39 -24 79 44 41 71 -10 7 -21 13
-24 13 -3 0 -14 -6 -24 -13z"/>
<path d="M102 573 c2 -10 10 -18 18 -18 8 0 16 8 18 18 2 12 -3 17 -18 17 -15
0 -20 -5 -18 -17z"/>
<path d="M912 573 c2 -10 10 -18 18 -18 8 0 16 8 18 18 2 12 -3 17 -18 17 -15
0 -20 -5 -18 -17z"/>
<path d="M361 414 c-28 -35 -26 -69 4 -99 30 -30 64 -32 99 -4 19 15 26 30 26
54 0 70 -87 103 -129 49z"/>
<path d="M582 417 c-45 -48 -11 -127 55 -127 33 0 73 42 73 78 0 63 -84 95
-128 49z"/>
<path d="M202 408 c-34 -34 6 -90 48 -68 35 19 20 80 -20 80 -9 0 -21 -5 -28
-12z"/>
<path d="M792 408 c-34 -34 6 -90 48 -68 35 19 20 80 -20 80 -9 0 -21 -5 -28
-12z"/>
<path d="M107 394 c-14 -15 -6 -34 14 -34 14 0 19 5 17 17 -3 18 -20 27 -31
17z"/>
<path d="M917 394 c-14 -15 -6 -34 14 -34 14 0 19 5 17 17 -3 18 -20 27 -31
17z"/>
<path d="M194 195 c-8 -33 12 -57 45 -53 22 3 26 8 26 38 0 32 -3 35 -32 38
-28 3 -33 -1 -39 -23z"/>
<path d="M390 201 c-16 -31 4 -63 37 -59 34 4 52 32 37 56 -16 26 -60 28 -74
3z"/>
<path d="M592 208 c-27 -27 -6 -68 35 -68 29 0 48 33 33 60 -12 22 -49 27 -68
8z"/>
<path d="M784 206 c-9 -23 -1 -48 19 -60 25 -16 52 4 52 40 0 25 -4 29 -33 32
-22 2 -34 -2 -38 -12z"/>
<path d="M410 70 c0 -15 5 -20 18 -18 9 2 17 10 17 18 0 8 -8 16 -17 18 -13 2
-18 -3 -18 -18z"/>
<path d="M605 80 c-8 -13 3 -30 20 -30 14 0 27 24 18 34 -10 9 -31 7 -38 -4z"/>
</g>
</svg>
